<svg width="270" height="35" viewBox="0 0 270 35" fill="none" xmlns="http://www.w3.org/2000/svg">
<path d="M17.6877 34.7746C27.327 34.7746 35.1413 27.0417 35.1413 17.5027C35.1413 7.96363 27.327 0.230713 17.6877 0.230713C8.04836 0.230713 0.234131 7.96363 0.234131 17.5027C0.234131 27.0417 8.04836 34.7746 17.6877 34.7746Z" fill="white"/>
<path d="M169.277 8.64964H170.226V15.2825H169.277V15.5298H172.32V15.2825H171.37V8.64964H172.32V8.40234H169.277V8.64964Z" fill="white"/>
<path d="M138.029 8.64964H138.973V15.2825H138.029V15.5298H141.067V15.2825H140.123V8.64964H141.067V8.40234H138.029V8.64964Z" fill="white"/>
<path d="M161.897 8.64964H162.841V15.2825H161.897V15.5298H164.934V15.2825H163.99V8.64964H164.934V8.40234H161.897V8.64964Z" fill="white"/>
<path d="M177.818 8.5947H178.912V13.4196H178.889L175.319 8.34741H173.003V8.5947H173.93V15.2276H173.003V15.4749H175.346V15.2276H174.236V8.82551H174.252L179.023 15.5903L179.211 15.5409V8.5947H180.139V8.34741H177.818V8.5947Z" fill="white"/>
<path d="M184.892 8.64964H185.803V11.738H182.666V8.64964H183.576V8.40234H180.578V8.64964H181.522V15.2825H180.578V15.5298H183.576V15.2825H182.666V11.9853H185.803V15.2825H184.892V15.5298H187.897V15.2825H186.947V8.64964H187.897V8.40234H184.892V8.64964Z" fill="white"/>
<path d="M67.9206 8.64964H68.8314V11.738H65.6938V8.64964H66.6045V8.40234H63.6003V8.64964H64.5499V15.2825H63.6003V15.5298H66.6045V15.2825H65.6938V11.9853H68.8314V15.2825H67.9206V15.5298H70.9249V15.2825H69.9753V8.64964H70.9249V8.40234H67.9206V8.64964Z" fill="white"/>
<path d="M191.723 8.34741H191.523L189.14 15.343H188.291V15.5903H190.54V15.343H189.485L190.218 13.1009H192.089L192.778 15.343H191.728V15.5903H194.977V15.343H194.049L191.723 8.34741ZM190.323 12.7932L191.19 10.2488L191.989 12.7932H190.323Z" fill="white"/>
<path d="M119.648 8.34741H119.448L117.072 15.343H116.222V15.5903H118.471V15.343H117.416L118.149 13.1009H120.026L120.715 15.343H119.665V15.5903H122.914V15.343H121.986L119.648 8.34741ZM118.249 12.7932L119.115 10.2488L119.948 12.7877L118.249 12.7932Z" fill="white"/>
<path d="M151.601 8.34741H151.401L149.019 15.343H148.158V15.5903H150.407V15.343H149.347L150.08 13.1009H151.957L152.645 15.343H151.601V15.5903H154.85V15.343H153.922L151.601 8.34741ZM150.202 12.7932L151.046 10.2433L151.84 12.7877L150.202 12.7932Z" fill="white"/>
<path d="M90.2888 8.5947H91.3827V13.4196H91.3605L87.7843 8.34741H85.4742V8.5947H86.4016V15.2276H85.4742V15.4749H87.8176V15.2276H86.707V8.82551H86.7236L91.4883 15.5903L91.6826 15.5409V8.5947H92.61V8.34741H90.2888V8.5947Z" fill="white"/>
<path d="M82.3866 15.2825H80.8595V12.0513H81.4148C82.5865 12.0513 82.6476 12.381 82.6587 13.6284H82.9642V10.2268H82.6587C82.6587 11.3259 82.5921 11.738 81.4148 11.738H80.8595V8.64964H81.3426C83.6472 8.64964 84.0193 8.82549 84.3302 10.5895H84.5968L84.5357 8.39136H78.766V8.63865H79.7156V15.2825H78.766V15.5298H84.83L84.9244 13.0954H84.6523C84.408 14.5187 83.9304 15.2825 82.3866 15.2825Z" fill="white"/>
<path d="M59.3244 9.76524C59.3301 9.59646 59.3712 9.4307 59.445 9.27845C59.5188 9.1262 59.6238 8.99077 59.7532 8.88074C59.8827 8.77071 60.0338 8.68848 60.197 8.63924C60.3603 8.59001 60.5321 8.57485 60.7015 8.59473C61.6456 8.59473 62.2287 9.14426 62.473 10.2818H62.7506L62.6896 8.72112C62.1049 8.45602 61.4722 8.31023 60.8293 8.29248C59.6409 8.29248 58.5525 9.00138 58.5525 10.2653C58.5525 12.7217 62.4397 12.0348 62.4397 13.9582C62.4397 14.9144 61.6123 15.343 60.7737 15.343C60.2166 15.3086 59.693 15.0678 59.3071 14.6687C58.9212 14.2695 58.7014 13.7412 58.6913 13.1889H58.4136L58.4803 15.2057C59.1587 15.5152 59.899 15.6692 60.646 15.6563C61.8955 15.6563 63.1671 14.854 63.1671 13.4911C63.1671 10.8149 59.3244 11.5402 59.3244 9.76524Z" fill="white"/>
<path d="M112.935 8.64964H113.845V11.738H110.708V8.64964H111.618V8.40234H108.614V8.64964H109.564V15.2825H108.614V15.5298H111.618V15.2825H110.708V11.9853H113.845V15.2825H112.935V15.5298H115.939V15.2825H114.989V8.64964H115.939V8.40234H112.935V8.64964Z" fill="white"/>
<path d="M127.623 8.64964H128.539V11.738H125.401V8.64964H126.312V8.40234H123.308V8.64964H124.257V15.2825H123.308V15.5298H126.312V15.2825H125.401V11.9853H128.539V15.2825H127.623V15.5298H130.632V15.2825H129.683V8.64964H130.632V8.40234H127.623V8.64964Z" fill="white"/>
<path d="M104.51 9.76524C104.516 9.59594 104.557 9.42966 104.631 9.27699C104.706 9.12432 104.811 8.98861 104.941 8.8785C105.071 8.76839 105.223 8.68629 105.387 8.63743C105.551 8.58858 105.723 8.57403 105.893 8.59473C106.837 8.59473 107.42 9.14426 107.659 10.2818H107.926L107.865 8.72112C107.28 8.45602 106.647 8.31023 106.004 8.29248C104.816 8.29248 103.727 9.00138 103.727 10.2653C103.727 12.7217 107.615 12.0348 107.615 13.9582C107.615 14.9144 106.787 15.343 105.949 15.343C105.394 15.306 104.873 15.064 104.489 14.6651C104.106 14.2662 103.887 13.7394 103.877 13.1889H103.6L103.672 15.2057C104.35 15.5154 105.091 15.6694 105.838 15.6563C107.093 15.6563 108.359 14.854 108.359 13.4911C108.353 10.8149 104.51 11.5402 104.51 9.76524Z" fill="white"/>
<path d="M44.3864 10.6884H44.6918C44.7306 9.7597 45.1138 8.71558 46.1523 8.71558H47.0185V15.31H45.9079V15.5573H49.2731V15.31H48.1625V8.71558H49.0343C50.0617 8.71558 50.456 9.7597 50.5004 10.6884H50.8003V8.40234H44.3864V10.6884Z" fill="white"/>
<path d="M93.0653 10.6884H93.3708C93.4096 9.7597 93.7928 8.71558 94.8368 8.71558H95.7031V15.31H94.5925V15.5573H97.9577V15.31H96.847V8.71558H97.7356C98.7629 8.71558 99.1572 9.7597 99.196 10.6884H99.4959V8.40234H93.0653V10.6884Z" fill="white"/>
<path d="M202.562 8.62229H203.673V13.2824C203.673 14.4804 203.484 15.2552 201.58 15.2552C199.952 15.2552 199.669 14.6452 199.669 13.3593V8.62229H200.663V8.375H197.598V8.62229H198.525V13.4912C198.525 14.8321 198.847 15.5684 201.269 15.5684C203.69 15.5684 203.973 14.7606 203.973 13.3703V8.62229H204.823V8.375H202.601L202.562 8.62229Z" fill="white"/>
<path d="M210.159 8.5947H211.248V13.4196H211.231L207.655 8.34741H205.345V8.5947H206.272V15.2276H205.345V15.4749H207.682V15.2276H206.572V8.82551H206.594L211.359 15.5903L211.553 15.5409V8.5947H212.48V8.34741H210.159V8.5947Z" fill="white"/>
<path d="M212.964 8.64964H213.913V15.2825H212.964V15.5298H216.007V15.2825H215.057V8.64964H216.007V8.40234H212.964V8.64964Z" fill="white"/>
<path d="M221.005 8.5947H222.043L220.26 13.8373H220.238L218.556 8.5947H219.594V8.34741H216.534V8.5947H217.356L219.716 15.5903H219.938L222.398 8.5947H223.142V8.34741H221.005V8.5947Z" fill="white"/>
<path d="M227.291 15.2825H225.764V12.0513H226.319C227.491 12.0513 227.552 12.381 227.563 13.6284H227.863V10.2268H227.563C227.563 11.3259 227.491 11.738 226.319 11.738H225.764V8.64964H226.252C228.557 8.64964 228.929 8.82549 229.24 10.5895H229.501L229.44 8.39136H223.664V8.63865H224.614V15.2825H223.664V15.5298H229.729L229.817 13.0954H229.545C229.345 14.5187 228.834 15.2825 227.291 15.2825Z" fill="white"/>
<path d="M256.989 15.2825H255.445V12.0513H256.001C257.172 12.0513 257.233 12.381 257.244 13.6284H257.544V10.2268H257.244C257.244 11.3259 257.172 11.738 256.001 11.738H255.445V8.64964H255.934C258.238 8.64964 258.611 8.82549 258.921 10.5895H259.182L259.121 8.39136H253.368V8.63865H254.335V15.2825H253.385V15.5298H259.449L259.538 13.0954H259.266C259.038 14.5187 258.533 15.2825 256.989 15.2825Z" fill="white"/>
<path d="M235.82 13.7055C235.743 12.1283 235.265 11.9305 233.777 11.7491C234.749 11.6282 235.493 11.2875 235.493 10.1335C235.493 8.68822 234.588 8.41895 233.31 8.41895H230.362V8.66624H231.311V15.2827H230.362V15.53H233.36V15.2827H232.45V11.9305H233.083C234.371 11.9305 234.593 12.3591 234.671 13.656C234.765 15.0628 234.854 15.53 236.081 15.53H236.814V15.2827H236.564C235.948 15.2827 235.87 14.7661 235.82 13.7055ZM232.45 11.6227V8.64975H232.977C234.004 8.64975 234.349 9.19929 234.349 10.1225C234.349 10.9413 234.054 11.6172 233.16 11.6172L232.45 11.6227Z" fill="white"/>
<path d="M136.469 13.7055C136.386 12.1283 135.914 11.9305 134.425 11.7491C135.397 11.6282 136.141 11.2875 136.141 10.1335C136.141 8.68822 135.236 8.41895 133.959 8.41895H131.01V8.66624H131.96V15.2827H131.01V15.53H134.009V15.2827H133.098V11.9305H133.731C135.019 11.9305 135.242 12.3591 135.319 13.656C135.414 15.0628 135.503 15.53 136.73 15.53H137.468V15.2827H137.219C136.608 15.2827 136.519 14.7661 136.469 13.7055ZM133.098 11.6227V8.64975H133.626C134.653 8.64975 134.997 9.19929 134.997 10.1225C134.997 10.9413 134.703 11.6172 133.809 11.6172L133.098 11.6227Z" fill="white"/>
<path d="M238.23 9.76536C238.236 9.59659 238.277 9.43082 238.351 9.27857C238.425 9.12632 238.53 8.99089 238.659 8.88086C238.789 8.77084 238.94 8.6886 239.103 8.63937C239.266 8.59014 239.438 8.57498 239.608 8.59485C240.552 8.59485 241.135 9.14439 241.379 10.2819H241.646L241.562 8.71575C240.976 8.45021 240.341 8.30443 239.696 8.28711C238.508 8.28711 237.42 8.99601 237.42 10.2599C237.42 12.7164 241.307 12.0295 241.307 13.9528C241.307 14.909 240.479 15.3377 239.641 15.3377C239.093 15.2929 238.581 15.0483 238.204 14.6513C237.828 14.2544 237.613 13.7333 237.603 13.189H237.325L237.392 15.2058C238.07 15.5157 238.811 15.6697 239.558 15.6564C240.807 15.6564 242.079 14.8541 242.079 13.4912C242.079 10.815 238.23 11.5404 238.23 9.76536Z" fill="white"/>
<path d="M242.734 8.64964H243.684V15.2825H242.734V15.5298H245.777V15.2825H244.828V8.64964H245.777V8.40234H242.734V8.64964Z" fill="white"/>
<path d="M266.962 8.64964H267.912V15.2825H266.962V15.5298H270V15.2825H269.056V8.64964H270V8.40234H266.962V8.64964Z" fill="white"/>
<path d="M259.888 10.6884H260.188C260.232 9.7597 260.61 8.71558 261.654 8.71558H262.52V15.31H261.409V15.5573H264.774V15.31H263.664V8.71558H264.536C265.563 8.71558 265.957 9.7597 265.996 10.6884H266.296V8.40234H259.888V10.6884Z" fill="white"/>
<path d="M246.388 10.6884H246.693C246.732 9.7597 247.115 8.71558 248.154 8.71558H249.02V15.31H247.91V15.5573H251.275V15.31H250.164V8.71558H251.036C252.063 8.71558 252.458 9.7597 252.496 10.6884H252.796V8.40234H246.388V10.6884Z" fill="white"/>
<path d="M72.4909 15.2662V8.67174H71.5413V8.40247H74.6455V8.67174H73.707V15.2662H74.6455V15.5355H71.5413V15.2662H72.4909ZM75.7284 8.39697H77.622V8.66625H76.9334L74.7122 11.1337L77.7442 15.2662H78.2995V15.5355H75.6284V15.2662H76.2615L73.7681 11.7656L76.5447 8.66625H75.7117L75.7284 8.39697Z" fill="white"/>
<path d="M54.6375 8.38037C52.8772 8.38037 51.45 9.71575 51.45 11.9688C51.45 14.2219 52.8772 15.5628 54.6375 15.5628C56.3979 15.5628 57.825 14.2219 57.825 11.9688C57.825 9.71575 56.3979 8.38037 54.6375 8.38037ZM56.3312 13.9911C56.3055 14.2016 56.2304 14.4032 56.1117 14.5797C55.9931 14.7563 55.8344 14.9029 55.6482 15.0078C55.3273 15.1734 54.9716 15.2618 54.6098 15.2661C54.3845 15.2843 54.1579 15.2555 53.9446 15.1817C53.7313 15.1079 53.5361 14.9906 53.3714 14.8374C53.0944 14.5313 52.9215 14.1469 52.8772 13.7384C52.796 13.1704 52.7552 12.5974 52.755 12.0238C52.7291 11.287 52.7868 10.5497 52.9272 9.82565C52.9655 9.64089 53.0427 9.46616 53.1537 9.3128C53.2646 9.15944 53.4069 9.03086 53.5713 8.9354C53.8993 8.76296 54.2662 8.67597 54.6375 8.68262C54.9881 8.67583 55.3344 8.75915 55.6426 8.92441C55.9439 9.09816 56.1694 9.37615 56.2757 9.70476C56.4407 10.3471 56.5081 11.0101 56.4756 11.6721C56.4997 12.446 56.4514 13.2205 56.3312 13.9856V13.9911Z" fill="white"/>
<path d="M142.383 15.2442V8.69375H141.461V8.42448H144.543C145.169 8.40818 145.792 8.51464 146.376 8.73771C146.931 8.99032 147.38 9.42529 147.647 9.96867C147.987 10.5774 148.163 11.2625 148.158 11.958C148.17 12.6723 147.978 13.3753 147.603 13.9858C147.307 14.5104 146.855 14.9324 146.309 15.1948C145.745 15.4184 145.14 15.525 144.532 15.508H141.472V15.2387L142.383 15.2442ZM143.594 8.69375V15.2442H144.476C144.851 15.252 145.225 15.2076 145.587 15.1123C145.888 15.0212 146.146 14.8262 146.315 14.5628C146.523 14.2187 146.656 13.8347 146.703 13.4363C146.779 12.8458 146.812 12.2508 146.803 11.6558C146.841 10.9828 146.731 10.3098 146.481 9.68292C146.411 9.50386 146.304 9.34062 146.169 9.20283C146.033 9.06503 145.872 8.95546 145.693 8.88059C145.296 8.76538 144.884 8.71344 144.471 8.72672L143.594 8.69375Z" fill="white"/>
<path d="M160.292 10.5621H159.975C159.924 10.2974 159.847 10.038 159.748 9.7872C159.629 9.41547 159.391 9.09189 159.071 8.86499C158.751 8.6381 158.365 8.52012 157.971 8.52877C157.756 8.5105 157.539 8.53513 157.334 8.60121C157.129 8.66729 156.94 8.77347 156.777 8.91344C156.521 9.17785 156.359 9.5173 156.316 9.88063C156.252 10.4278 156.224 10.9785 156.233 11.5292C156.207 12.392 156.248 13.2554 156.355 14.1121C156.407 14.48 156.588 14.8182 156.866 15.0683C157.131 15.2834 157.466 15.3966 157.81 15.387C158.088 15.3901 158.363 15.3239 158.609 15.1946C158.718 15.1393 158.813 15.0617 158.889 14.9669C158.964 14.8721 159.019 14.7624 159.048 14.6451C159.117 14.2737 159.147 13.8961 159.137 13.5186V13.1394H158.143V12.8701H161.353V13.1394H160.525C160.562 13.5073 160.504 13.8784 160.358 14.2184C160.211 14.5585 159.98 14.8564 159.687 15.0847C159.179 15.4598 158.565 15.6657 157.932 15.6727C157.5 15.6762 157.074 15.5784 156.688 15.3874C156.302 15.1964 155.967 14.9175 155.711 14.5737C155.119 13.8374 154.805 12.9203 154.822 11.9799C154.792 11.0222 155.111 10.0859 155.722 9.34208C155.944 9.04062 156.228 8.78825 156.554 8.601C156.88 8.41374 157.243 8.2957 157.617 8.25435C157.992 8.21301 158.372 8.24928 158.732 8.36085C159.092 8.47242 159.425 8.65686 159.709 8.90245C159.87 9.02884 159.998 8.71561 159.998 8.71561H160.281L160.292 10.5621Z" fill="white"/>
<path d="M44.4697 19.7284H45.4193V26.3723H44.4697V26.6251H47.5183V26.3723H46.5688V19.7284H47.5183V19.4756H44.4697V19.7284Z" fill="white"/>
<path d="M53.3214 19.7284H54.4154V24.5643H54.3932L50.8114 19.4756H48.4957V19.7284H49.4231V26.3723H48.4957V26.6251H50.8447V26.3723H49.7285V19.9592H49.7507L54.5265 26.7405L54.7153 26.691V19.7284H55.6482V19.4756H53.3214V19.7284Z" fill="white"/>
<path d="M140.7 19.7284H141.65V26.3723H140.7V26.6251H143.749V26.3723H142.799V19.7284H143.749V19.4756H140.7V19.7284Z" fill="white"/>
<path d="M149.547 19.7284H150.64V24.5643H150.624L147.042 19.4756H144.726V19.7284H145.654V26.3723H144.726V26.6251H147.07V26.3723H145.954V19.9592H145.976L150.752 26.7405L150.946 26.691V19.7284H151.879V19.4756H149.547V19.7284Z" fill="white"/>
<path d="M60.8681 19.7284H61.7844V22.8223H58.6413V19.7284H59.552V19.4756H56.5422V19.7284H57.4918V26.3723H56.5422V26.6251H59.552V26.3723H58.6413V23.0696H61.7844V26.3723H60.8681V26.6251H63.8835V26.3723H62.9284V19.7284H63.8835V19.4756H60.8681V19.7284Z" fill="white"/>
<path d="M177.39 19.7284H178.301V22.8223H175.158V19.7284H176.068V19.4756H173.059V19.7284H174.008V26.3723H173.059V26.6251H176.068V26.3723H175.158V23.0696H178.301V26.3723H177.39V26.6251H180.4V26.3723H179.45V19.7284H180.4V19.4756H177.39V19.7284Z" fill="white"/>
<path d="M67.7152 19.3601H67.5153L65.133 26.3777H64.2833V26.625H66.5379V26.3777H65.4717L66.2103 24.1301H68.0928L68.7814 26.3777H67.7485V26.625H71.0026V26.3777H70.0697L67.7152 19.3601ZM66.3102 23.8169L67.1932 21.2615L67.9928 23.8114L66.3102 23.8169Z" fill="white"/>
<path d="M164.201 19.3601H164.001L161.597 26.3777H160.764V26.625H163.018V26.3777H161.958L162.707 24.1246H164.59L165.262 26.3777H164.212V26.625H167.467V26.3777H166.534L164.201 19.3601ZM162.796 23.8169L163.663 21.267L164.462 23.8169H162.796Z" fill="white"/>
<path d="M78.8548 19.7228H79.9655V24.3938C79.9655 25.5918 79.7711 26.3722 77.8664 26.3722C76.2337 26.3722 75.9505 25.7622 75.9505 24.4708V19.7228H76.9501V19.4755H73.857V19.7228H74.7899V24.6027C74.7899 25.9435 75.112 26.6854 77.5665 26.6854C80.021 26.6854 80.2764 25.8721 80.2764 24.4873V19.7063H81.0761V19.459H78.8548V19.7228Z" fill="white"/>
<path d="M86.8791 19.7284H87.9731V24.5643H87.9509L84.3691 19.4756H82.0534V19.7284H82.9808V26.3723H82.0534V26.6251H84.3969V26.3723H83.2862V19.9592H83.3029L88.0842 26.7405L88.273 26.691V19.7284H89.2059V19.4756H86.8791V19.7284Z" fill="white"/>
<path d="M200.175 19.7284H201.269V24.5643H201.246L197.665 19.4756H195.349V19.7284H196.276V26.3723H195.349V26.6251H197.692V26.3723H196.582V19.9592H196.604L201.38 26.7405L201.574 26.691V19.7284H202.501V19.4756H200.175V19.7284Z" fill="white"/>
<path d="M90.1777 19.7284H91.1273V26.3723H90.1777V26.6251H93.2264V26.3723H92.2768V19.7284H93.2264V19.4756H90.1777V19.7284Z" fill="white"/>
<path d="M98.0687 19.7284H99.1072L97.3191 24.9819H97.3024L95.6142 19.7284H96.6527V19.4756H93.5818V19.7284H94.4092L96.7749 26.7405H96.997L99.4626 19.7284H100.207V19.4756H98.0687V19.7284Z" fill="white"/>
<path d="M104.194 26.3776H102.661V23.1354H103.217C104.394 23.1354 104.455 23.4706 104.466 24.718H104.766V21.3109H104.466C104.466 22.41 104.394 22.8276 103.217 22.8276H102.661V19.7228H103.15C105.46 19.7228 105.832 19.9041 106.149 21.6681H106.41L106.349 19.47H100.562V19.7173H101.512V26.3776H100.562V26.6249H106.621L106.732 24.1795H106.46C106.249 25.6028 105.743 26.3776 104.194 26.3776Z" fill="white"/>
<path d="M192.045 26.3776H190.512V23.1354H191.067C192.245 23.1354 192.306 23.4706 192.317 24.718H192.622V21.3109H192.317C192.317 22.41 192.245 22.8276 191.067 22.8276H190.512V19.7228H191.001C193.311 19.7228 193.683 19.9041 193.994 21.6681H194.261L194.199 19.47H188.413V19.7173H189.363V26.3776H188.413V26.6249H194.488L194.583 24.1795H194.31C194.094 25.6028 193.589 26.3776 192.045 26.3776Z" fill="white"/>
<path d="M113.201 24.7952C113.118 23.218 112.646 23.0147 111.152 22.8334C112.124 22.7125 112.868 22.3718 112.868 21.2122C112.868 19.7615 111.963 19.4922 110.68 19.4922H107.731V19.7395H108.681V26.3779H107.731V26.6252H110.741V26.3779H109.83V23.0147H110.469C111.757 23.0147 111.985 23.4434 112.063 24.7458C112.157 26.1581 112.246 26.6252 113.473 26.6252H114.212V26.3779H113.962C113.334 26.3779 113.257 25.8283 113.201 24.7952ZM109.819 22.707V19.723H110.347C111.38 19.723 111.724 20.2725 111.724 21.2012C111.724 22.0201 111.43 22.7015 110.53 22.7015L109.819 22.707Z" fill="white"/>
<path d="M115.567 20.8439C115.572 20.6746 115.614 20.5083 115.688 20.3556C115.762 20.2029 115.867 20.0672 115.997 19.9571C116.128 19.847 116.279 19.7649 116.443 19.7161C116.607 19.6672 116.78 19.6527 116.949 19.6733C117.894 19.6733 118.477 20.2229 118.721 21.3659H118.987L118.926 19.7833C118.34 19.5158 117.706 19.3682 117.061 19.3491C115.867 19.3491 114.778 20.058 114.778 21.3275C114.778 23.7949 118.699 23.1025 118.699 25.0313C118.699 25.9875 117.871 26.4162 117.033 26.4162C116.477 26.3818 115.954 26.1418 115.568 25.7438C115.182 25.3458 114.962 24.8188 114.95 24.2675H114.673L114.745 26.2898C115.425 26.6003 116.167 26.7544 116.916 26.7404C118.171 26.7404 119.443 25.9381 119.443 24.5422C119.421 21.8935 115.567 22.6354 115.567 20.8439Z" fill="white"/>
<path d="M168.655 20.8439C168.661 20.6746 168.702 20.5083 168.776 20.3556C168.85 20.2029 168.956 20.0672 169.086 19.9571C169.216 19.847 169.368 19.7649 169.531 19.7161C169.695 19.6672 169.868 19.6527 170.038 19.6733C170.982 19.6733 171.565 20.2229 171.809 21.3659H172.076L172.02 19.7833C171.434 19.5154 170.799 19.3677 170.154 19.3491C168.96 19.3491 167.872 20.058 167.872 21.3275C167.872 23.7949 171.792 23.1025 171.792 25.0313C171.792 25.9875 170.965 26.4162 170.126 26.4162C169.566 26.3843 169.039 26.1439 168.651 25.7433C168.263 25.3427 168.042 24.8115 168.033 24.2565H167.755L167.822 26.2788C168.502 26.5891 169.244 26.7432 169.993 26.7294C171.248 26.7294 172.52 25.9271 172.52 24.5313C172.514 21.8935 168.655 22.6354 168.655 20.8439Z" fill="white"/>
<path d="M120.193 19.7284H121.142V26.3723H120.193V26.6251H123.241V26.3723H122.292V19.7284H123.241V19.4756H120.193V19.7284Z" fill="white"/>
<path d="M124.008 21.7673H124.307C124.352 20.8386 124.735 19.7889 125.773 19.7889H126.645V26.3779H125.535V26.6252H128.911V26.3779H127.8V19.7834H128.672C129.705 19.7834 130.099 20.8331 130.138 21.7618H130.444V19.4812H124.008V21.7673Z" fill="white"/>
<path d="M155.094 21.7673H155.4C155.438 20.8386 155.822 19.7889 156.866 19.7889H157.71V26.3779H156.599V26.6252H159.975V26.3779H158.865V19.7834H159.737C160.769 19.7834 161.164 20.8331 161.203 21.7618H161.502V19.4812H155.094V21.7673Z" fill="white"/>
<path d="M203.429 21.7673H203.734C203.773 20.8386 204.162 19.7889 205.2 19.7889H206.067V26.3779H204.956V26.6252H208.327V26.3779H207.216V19.7834H208.088C209.121 19.7834 209.515 20.8331 209.554 21.7618H209.854V19.4812H203.429V21.7673Z" fill="white"/>
<path d="M134.881 19.4756V19.7284H135.913L134.403 22.6519L132.809 19.7284H133.859V19.4756H130.644V19.7284H131.493L133.381 23.0311V26.3723H132.421V26.6251H135.458V26.3723H134.525V23.0091L136.23 19.7284H137.019V19.4756H134.881Z" fill="white"/>
<path d="M182.232 26.3776V19.7832H181.283V19.5139H184.398V19.7832H183.454V26.3776H184.398V26.6469H181.283V26.3776H182.232ZM185.475 19.47H187.375V19.7392H186.686L184.465 22.2122L187.525 26.3776H188.047V26.6469H185.37V26.3776H186.031L183.532 22.8661L186.336 19.7557H185.475V19.47Z" fill="white"/>
<path d="M3.72062 14.5353C3.96904 14.5353 4.17042 14.336 4.17042 14.0901C4.17042 13.8443 3.96904 13.645 3.72062 13.645C3.4722 13.645 3.27081 13.8443 3.27081 14.0901C3.27081 14.336 3.4722 14.5353 3.72062 14.5353Z" fill="#1D1D1B"/>
<path d="M31.6474 14.5353C31.8959 14.5353 32.0972 14.336 32.0972 14.0901C32.0972 13.8443 31.8959 13.645 31.6474 13.645C31.399 13.645 31.1976 13.8443 31.1976 14.0901C31.1976 14.336 31.399 14.5353 31.6474 14.5353Z" fill="#1D1D1B"/>
<path d="M17.6871 8.63094e-07C14.1888 -0.00108609 10.7686 1.02451 7.85934 2.94707C4.95003 4.86964 2.6822 7.60282 1.34268 10.8009C0.00315729 13.999 -0.347893 17.5184 0.333929 20.914C1.01575 24.3096 2.69982 27.4288 5.17314 29.8771C7.64646 32.3255 10.7979 33.993 14.229 34.6688C17.66 35.3446 21.2166 34.9983 24.4487 33.6737C27.6809 32.3491 30.4435 30.1058 32.3872 27.2273C34.3309 24.3489 35.3684 20.9647 35.3684 17.5028C35.3684 12.8617 33.5057 8.41062 30.19 5.12838C26.8743 1.84614 22.377 0.00145803 17.6871 8.63094e-07ZM17.6871 34.5329C14.2823 34.5329 10.954 33.5338 8.12309 31.6619C5.29214 29.79 3.08567 27.1294 1.78273 24.0165C0.479781 20.9037 0.138871 17.4784 0.803107 14.1738C1.46734 10.8692 3.10689 7.83371 5.51442 5.45124C7.92195 3.06876 10.9893 1.44627 14.3287 0.788947C17.668 0.131623 21.1293 0.468986 24.2749 1.75837C27.4205 3.04776 30.1091 5.23126 32.0007 8.03276C33.8923 10.8343 34.9019 14.1279 34.9019 17.4973C34.9019 19.7344 34.4566 21.9497 33.5915 24.0165C32.7264 26.0834 31.4583 27.9614 29.8598 29.5433C28.2613 31.1252 26.3635 32.38 24.2749 33.2361C22.1863 34.0923 19.9478 34.5329 17.6871 34.5329Z" fill="#1D1D1B"/>
<path d="M17.6868 6.34717C15.4572 6.34717 13.2777 7.00143 11.4239 8.22722C9.57008 9.45302 8.1252 11.1953 7.27198 13.2337C6.41876 15.2721 6.19552 17.5151 6.63049 19.6791C7.06546 21.8431 8.1391 23.8308 9.71564 25.391C11.2922 26.9511 13.3008 28.0136 15.4876 28.444C17.6743 28.8745 19.9409 28.6535 22.0007 27.8092C24.0606 26.9649 25.8212 25.535 27.0599 23.7005C28.2986 21.866 28.9597 19.7091 28.9597 17.5028C28.9597 16.0378 28.6681 14.5872 28.1016 13.2337C27.5351 11.8802 26.7047 10.6505 25.6579 9.61457C24.6112 8.57867 23.3684 7.75696 22.0007 7.19634C20.6331 6.63572 19.1672 6.34717 17.6868 6.34717ZM17.6868 28.3946C15.5099 28.3946 13.382 27.7558 11.572 26.559C9.762 25.3622 8.35129 23.6611 7.51825 21.6709C6.6852 19.6807 6.46724 17.4907 6.89192 15.3779C7.3166 13.2651 8.36486 11.3243 9.90412 9.80109C11.4434 8.27784 13.4045 7.24049 15.5396 6.82023C17.6746 6.39997 19.8876 6.61566 21.8987 7.44004C23.9099 8.26441 25.6288 9.66044 26.8382 11.4516C28.0476 13.2427 28.6931 15.3486 28.6931 17.5028C28.6931 20.3915 27.5336 23.1618 25.4695 25.2044C23.4054 27.2471 20.6059 28.3946 17.6868 28.3946Z" fill="#1D1D1B"/>
<path d="M24.3617 11.8371H21.7684V11.1886H20.7854V8.39147H16.8316C16.49 8.37421 16.1487 8.43063 15.8313 8.55683C15.5139 8.68303 15.2281 8.87599 14.9935 9.12235C14.5732 9.6243 14.3556 10.2625 14.3827 10.9138V11.8316H11.2896L9.99567 23.8115L17.8145 27.1087L25.6334 23.8115L24.3617 11.8371ZM17.8367 26.8284H17.809L10.3066 23.6631L11.5394 12.1558V12.0898H14.6714V10.9138C14.641 10.3148 14.8392 9.72637 15.2267 9.26523C15.4362 9.04827 15.6905 8.87854 15.9722 8.76759C16.2539 8.65663 16.5565 8.60707 16.8594 8.62227H20.5467V11.4139H21.5296V12.0898H24.1451V12.1228L25.3668 23.6301L17.8367 26.8284Z" fill="#1D1D1B"/>
<path fill-rule="evenodd" clip-rule="evenodd" d="M21.5129 13.4033H21.4741H20.53V15.1728H21.4741H21.5129V15.2058V15.6234H24.0507L23.7231 12.5405H21.5129V13.3648V13.4033Z" fill="#00B1EB"/>
<path fill-rule="evenodd" clip-rule="evenodd" d="M11.9282 12.5405L11.6005 15.6234H14.6492V12.5405H11.9282Z" fill="#00B1EB"/>
<path fill-rule="evenodd" clip-rule="evenodd" d="M24.0952 16.041H21.5129V17.1401H20.5467V18.6348H17.4702V16.041H16.3207V16.3323C16.3207 17.805 14.938 18.5799 13.5442 18.5799H13.4053V16.9752H13.4942C14.1383 16.9752 14.6048 16.64 14.6048 16.1949V16.041H11.5506L10.7676 23.3718L17.8256 26.3448L24.8837 23.3718L24.0952 16.041Z" fill="#005CA9"/>
<path d="M17.4702 12.5405H16.3207V15.6234H17.4702V12.5405Z" fill="#00B1EB"/>
<path fill-rule="evenodd" clip-rule="evenodd" d="M17.0981 10.0784C16.9889 10.0786 16.8809 10.1015 16.7811 10.1455C16.6814 10.1894 16.592 10.2536 16.5188 10.3338C16.4455 10.4141 16.3901 10.5086 16.356 10.6113C16.3219 10.714 16.3099 10.8226 16.3207 10.9302V12.0897H17.4702V10.0784H17.0981ZM17.2148 11.8369H16.5761V10.9302C16.5693 10.8566 16.5775 10.7825 16.6003 10.7122C16.623 10.6419 16.6599 10.5769 16.7086 10.5209C16.7573 10.465 16.8169 10.4194 16.8838 10.3868C16.9508 10.3542 17.0237 10.3353 17.0981 10.3312H17.2148V11.8369Z" fill="black"/>
<path d="M15.2434 20.6681C15.18 20.6645 15.1169 20.6799 15.0625 20.7122C15.008 20.7446 14.9646 20.7924 14.938 20.8494C14.8762 20.9702 14.8457 21.1043 14.8491 21.2396H14.6048C14.5892 21.0329 14.646 20.8272 14.7658 20.6571C14.8211 20.5797 14.8957 20.5178 14.9823 20.4774C15.0689 20.4369 15.1646 20.4193 15.2601 20.4263C15.4268 20.4222 15.5885 20.4834 15.7099 20.5966C15.7738 20.6606 15.8233 20.7373 15.8549 20.8216C15.8865 20.906 15.8995 20.996 15.8931 21.0857C15.9039 21.2596 15.8506 21.4314 15.7432 21.5693C15.6428 21.6846 15.5291 21.7879 15.4044 21.8771C15.2749 21.965 15.1527 22.0529 15.0379 22.1408C14.929 22.2251 14.8557 22.3466 14.8325 22.4816H15.8709V22.7234H14.5493C14.5503 22.5087 14.6181 22.2995 14.7436 22.1244C14.8544 21.9954 14.9813 21.881 15.1212 21.7836C15.262 21.6895 15.3923 21.5808 15.51 21.4594C15.5991 21.3534 15.6447 21.218 15.6377 21.0802C15.6401 21.0255 15.6309 20.9708 15.6109 20.9197C15.5908 20.8687 15.5602 20.8223 15.5211 20.7835C15.4851 20.7467 15.4419 20.7175 15.3942 20.6977C15.3464 20.6778 15.2952 20.6678 15.2434 20.6681Z" fill="white"/>
<path d="M16.9038 22.7619C16.7786 22.7732 16.6535 22.7394 16.5515 22.6667C16.4495 22.594 16.3774 22.4873 16.3485 22.3663C16.2144 21.8582 16.2144 21.3246 16.3485 20.8166C16.3934 20.7019 16.4723 20.6033 16.5749 20.5337C16.6775 20.4642 16.7989 20.427 16.9232 20.427C17.0476 20.427 17.169 20.4642 17.2716 20.5337C17.3741 20.6033 17.4531 20.7019 17.498 20.8166C17.6287 21.325 17.6287 21.8578 17.498 22.3663C17.4698 22.4954 17.3922 22.6088 17.2815 22.6826C17.1707 22.7564 17.0353 22.7848 16.9038 22.7619ZM16.9038 20.6682C16.8577 20.666 16.8116 20.673 16.7682 20.6888C16.7249 20.7045 16.6852 20.7288 16.6515 20.7601C16.6178 20.7913 16.5908 20.829 16.5722 20.8708C16.5535 20.9126 16.5435 20.9577 16.5428 21.0034C16.4727 21.3942 16.4727 21.7941 16.5428 22.1849C16.5538 22.2727 16.5969 22.3535 16.6639 22.4121C16.7308 22.4707 16.8172 22.5031 16.9066 22.5031C16.996 22.5031 17.0823 22.4707 17.1493 22.4121C17.2163 22.3535 17.2593 22.2727 17.2703 22.1849C17.339 21.794 17.339 21.3943 17.2703 21.0034C17.2697 20.9572 17.2595 20.9116 17.2405 20.8695C17.2215 20.8273 17.194 20.7893 17.1597 20.758C17.1255 20.7266 17.0851 20.7025 17.0411 20.6871C16.9971 20.6716 16.9504 20.6652 16.9038 20.6682Z" fill="white"/>
<path d="M18.7808 20.4263V22.7233H18.5031V21.0747H17.9811V20.8549C18.11 20.8573 18.2376 20.829 18.3532 20.7725C18.4127 20.7363 18.4624 20.6864 18.4982 20.6271C18.5339 20.5677 18.5547 20.5007 18.5587 20.4318L18.7808 20.4263Z" fill="white"/>
<path d="M20.5467 20.4263V21.943H20.7743V22.1848H20.5467V22.7343H20.3245V22.1848H19.436V21.9045L20.3523 20.4263H20.5467ZM19.6304 21.943H20.3245V20.8109L19.6304 21.943Z" fill="white"/>
<path d="M16.3929 2.65421L16.5873 2.63773L16.6762 3.98409L16.4818 3.99508L16.4873 4.04454L17.1037 4.00058L17.0982 3.95112L16.9094 3.96761L16.8205 2.62674L17.0093 2.61574V2.56079L16.3929 2.60475V2.65421Z" fill="#1D1D1B"/>
<path d="M22.6458 3.42372L22.8568 3.48967L22.5458 4.41839L22.1793 3.2149L21.7406 3.07202L21.724 3.12148L21.9017 3.17643L21.4741 4.45136L21.2964 4.3964L21.2797 4.44037L21.7295 4.58874L21.7462 4.54478L21.5296 4.47334L21.9461 3.24238L22.4292 4.84153L22.4681 4.84702L22.9179 3.51165L23.0956 3.5666L23.1123 3.52264L22.6625 3.37427L22.6458 3.42372Z" fill="#1D1D1B"/>
<path d="M9.9013 4.74245L10.0679 4.64903L10.7454 5.81404L10.5788 5.90747L10.601 5.95143L11.1341 5.64918L11.1119 5.60522L10.9453 5.69864L10.2678 4.53362L10.4344 4.4402L10.4066 4.39624L9.87354 4.70398L9.9013 4.74245Z" fill="#1D1D1B"/>
<path d="M30.9644 10.5126L31.0699 10.7049L30.2036 11.1775L30.7589 10.0509L30.5368 9.64429L30.4924 9.67176L30.5812 9.83113L29.3929 10.4851L29.304 10.3202L29.2596 10.3422L29.4873 10.7544L29.5317 10.7324L29.4206 10.5345L30.5701 9.90807V9.91356L29.826 11.4083L29.8538 11.4413L31.0977 10.7598L31.1865 10.9192L31.2365 10.8972L31.0088 10.4906L30.9644 10.5126Z" fill="#1D1D1B"/>
<path d="M27.8046 6.47901L27.9435 6.5999L27.5214 7.06701L27.0494 6.64936L27.4714 6.18226L27.6047 6.30316L27.6436 6.26469L27.1882 5.86353L27.1549 5.90199L27.2993 6.02839L26.3941 7.02854L26.2498 6.90215L26.2164 6.94062L26.6718 7.34178L26.7051 7.30881L26.5663 7.18241L27.0161 6.68783L27.4881 7.10548L27.0383 7.60556L26.8995 7.47916L26.8662 7.51763L27.3215 7.91879L27.3548 7.88033L27.2104 7.75393L28.1156 6.75378L28.26 6.88017L28.2933 6.8472L27.838 6.44054L27.8046 6.47901Z" fill="#1D1D1B"/>
<path d="M5.30324 9.02902L5.40875 8.87515L5.93075 9.22685L5.57535 9.74891L5.05335 9.39721L5.15331 9.24884L5.11444 9.21586L4.77014 9.71594L4.81457 9.74342L4.92008 9.58955L6.04737 10.3424L5.9363 10.4963L5.98073 10.5238L6.31947 10.0292L6.2806 10.0017L6.17509 10.1501L5.61977 9.77639L5.97518 9.25433L6.53049 9.62802L6.43053 9.78189L6.46941 9.80936L6.8137 9.30928L6.76928 9.28181L6.66377 9.44117L5.53648 8.68831L5.64754 8.52894L5.60311 8.50146L5.26437 9.00154L5.30324 9.02902Z" fill="#1D1D1B"/>
<path d="M25.5001 4.69849H25.4668L24.3117 5.66567L24.1674 5.57774V5.62171L24.5561 5.85251V5.80855L24.3728 5.69864L24.7393 5.38541L25.0614 5.57774L24.9448 6.03935L24.7615 5.92945V5.97341L25.3169 6.30863V6.26466L25.1558 6.17124L25.5001 4.69849ZM24.7893 5.32496L25.2113 4.97325L25.0781 5.52279L24.7893 5.32496Z" fill="#1D1D1B"/>
<path d="M6.23621 7.73755V7.77052L7.0081 9.05644L6.89703 9.18283L6.9359 9.2158L7.23022 8.87509L7.19135 8.84212L7.05252 9.00148L6.80263 8.59483L7.05252 8.30907L7.49122 8.5014L7.35239 8.66077L7.39126 8.69374L7.81886 8.19916L7.77443 8.16619L7.65226 8.30907L6.23621 7.73755ZM6.74154 8.53987L6.45833 8.07277L6.95812 8.28709L6.74154 8.53987Z" fill="#1D1D1B"/>
<path d="M7.94657 6.12733L8.11316 5.98445L8.74622 6.69335C8.90726 6.8747 8.98501 7.01758 8.69624 7.27036C8.40748 7.52315 8.32418 7.42973 8.14093 7.23739L7.50232 6.5175L7.65225 6.38561L7.61893 6.34714L7.15247 6.7538L7.18578 6.79227L7.32461 6.67137L7.98544 7.40775C8.16869 7.61108 8.31308 7.68252 8.68514 7.35829C9.0572 7.03406 8.98501 6.8747 8.80175 6.67137L8.15759 5.94598L8.28531 5.83607L8.25199 5.79761L7.91325 6.09436L7.94657 6.12733Z" fill="#1D1D1B"/>
<path d="M4.44253 10.3917L4.54804 10.1938L5.41989 10.6499L4.16488 10.8148L3.9483 11.2215L3.99273 11.2489L4.08158 11.0786L5.28661 11.6996L5.19776 11.8644L5.24219 11.8919L5.46432 11.4742L5.41434 11.4523L5.31438 11.6501L4.14822 11.0511L4.15377 11.0456L5.82527 10.8313L5.83638 10.7928L4.57581 10.1444L4.65911 9.9795L4.61468 9.95752L4.39811 10.3697L4.44253 10.3917Z" fill="#1D1D1B"/>
<path d="M9.29599 5.11059L9.47924 4.9897L10.0401 5.79202L8.85173 5.35789L8.46857 5.62166L8.49633 5.66563L8.64627 5.55572L9.42371 6.66029L9.26822 6.7647L9.30154 6.80866L9.69026 6.53939L9.65694 6.50092L9.47369 6.62732L8.72401 5.56121H8.72957L10.3122 6.13823L10.34 6.11075L9.52922 4.95672L9.67916 4.84682L9.65139 4.80835L9.26822 5.07213L9.29599 5.11059Z" fill="#1D1D1B"/>
<path d="M3.67064 12.0732L3.74284 11.8974L4.99785 12.4084L4.92566 12.5843L4.97008 12.6063L5.20332 12.0403L5.15889 12.0238L5.0867 12.1996L3.83169 11.6831L3.90388 11.5072L3.85945 11.4907L3.62067 12.0513L3.67064 12.0732Z" fill="#1D1D1B"/>
<path d="M11.4617 3.91831L11.6561 3.83038L11.7838 4.94044L11.0174 4.12713L11.2063 4.0392L11.184 3.99524L10.6232 4.25352L10.6454 4.30298L10.7953 4.23154L11.8393 5.30863L11.8782 5.29215L11.7171 3.79741L11.856 3.73146L11.8338 3.6875L11.445 3.87434L11.4617 3.91831Z" fill="#1D1D1B"/>
<path d="M13.2887 4.66012L12.9944 4.75904L12.7723 4.14356L12.8778 4.11059C13.0999 4.03365 13.1332 4.11059 13.2221 4.3304H13.2776L13.0499 3.67645H12.9944C13.0666 3.87978 13.0833 3.96771 12.8556 4.04464L12.7723 4.08311L12.5613 3.4951L12.6557 3.46213C13.0944 3.30826 13.1777 3.31925 13.3554 3.63798H13.4053L13.2443 3.22583L12.1337 3.60501V3.65447L12.3169 3.59402L12.7723 4.83597L12.589 4.89642V4.94588L13.7496 4.54472L13.5997 4.07212H13.5497C13.6275 4.39634 13.583 4.56121 13.2887 4.66012Z" fill="#1D1D1B"/>
<path d="M28.9542 9.81477L28.7765 9.56198L29.3318 9.1883L29.3929 9.27622C29.5317 9.46856 29.4817 9.51802 29.2707 9.66639L29.304 9.71585L29.8594 9.32019L29.826 9.27073C29.6428 9.39712 29.565 9.43559 29.4262 9.24325L29.3651 9.15532L29.8816 8.79813L29.9371 8.87506C30.2037 9.25424 30.2203 9.33667 29.9371 9.58946L29.9649 9.63342L30.3258 9.36964L29.6539 8.41895L29.615 8.44642L29.7261 8.60029L28.6155 9.36964L28.5044 9.21577L28.4655 9.24325L29.1708 10.2379L29.5873 9.96864L29.5539 9.92468C29.3207 10.0621 29.1374 10.0676 28.9542 9.81477Z" fill="#1D1D1B"/>
<path d="M14.9435 3.88515C14.8547 3.57741 14.7547 3.56092 14.4493 3.5939C14.6326 3.52795 14.7658 3.42354 14.7103 3.19823C14.6548 2.97292 14.4549 2.90148 14.1994 2.96193L13.6441 3.09931V3.14877L13.8329 3.10481L14.1272 4.39622L13.9384 4.44018V4.48964L14.5326 4.35226V4.3028L14.3549 4.34127L14.1994 3.68182L14.3271 3.65435C14.5826 3.5939 14.6437 3.65434 14.7214 3.92362C14.7992 4.19289 14.8436 4.28631 15.0879 4.23136L15.2323 4.19839V4.14893H15.1823C15.0435 4.19289 14.9935 4.09397 14.9435 3.88515ZM14.1828 3.62687L14.0439 3.03886H14.1494C14.3549 2.98941 14.4438 3.08283 14.4882 3.26967C14.5326 3.45651 14.4882 3.57741 14.3216 3.62137L14.1828 3.62687Z" fill="#1D1D1B"/>
<path d="M15.4267 2.99502C15.4266 2.93037 15.4522 2.86829 15.4979 2.82207C15.5435 2.77585 15.6057 2.74916 15.671 2.74773C15.8598 2.74773 15.9931 2.81367 16.0708 3.03898H16.1264L16.0708 2.72574C15.9471 2.68731 15.8167 2.67422 15.6877 2.68728C15.6302 2.68928 15.5738 2.70286 15.5219 2.72721C15.4699 2.75155 15.4235 2.78613 15.3856 2.82884C15.3476 2.87155 15.3189 2.92148 15.3011 2.97556C15.2834 3.02965 15.2769 3.08676 15.2823 3.14339C15.3489 3.63797 16.1153 3.39618 16.1652 3.78085C16.1652 3.97319 16.0375 4.0831 15.8709 4.10508C15.7576 4.11321 15.6455 4.07865 15.5569 4.00831C15.4683 3.93798 15.4099 3.83709 15.3933 3.7259H15.3378L15.4044 4.12706C15.5482 4.17062 15.7 4.18188 15.8487 4.16003C15.9112 4.15655 15.9724 4.14079 16.0287 4.11367C16.085 4.08655 16.1353 4.04862 16.1767 4.00208C16.218 3.95553 16.2496 3.90132 16.2696 3.84258C16.2895 3.78384 16.2975 3.72176 16.293 3.65996C16.2263 3.10492 15.4711 3.35222 15.4267 2.99502Z" fill="#1D1D1B"/>
<path d="M26.1942 5.49533C26.2157 5.46851 26.2425 5.44638 26.273 5.43034C26.3035 5.41429 26.337 5.40467 26.3714 5.40209C26.4059 5.39951 26.4405 5.40402 26.473 5.41533C26.5056 5.42665 26.5355 5.44453 26.5608 5.46785C26.6344 5.52269 26.6841 5.60334 26.6996 5.69326C26.715 5.78317 26.6952 5.87555 26.6441 5.95144L26.6885 5.98441L26.8662 5.72064C26.8038 5.60773 26.7188 5.50862 26.6163 5.42938C26.5732 5.3918 26.5229 5.3633 26.4683 5.34564C26.4137 5.32798 26.3561 5.32152 26.2989 5.32667C26.2417 5.33181 26.1862 5.34845 26.1357 5.37556C26.0853 5.40267 26.0409 5.43968 26.0054 5.48433C25.7056 5.8855 26.4275 6.2372 26.1998 6.55044C26.1737 6.58206 26.1413 6.60801 26.1046 6.62666C26.0679 6.64532 26.0277 6.65628 25.9865 6.65886C25.9453 6.66144 25.9041 6.65558 25.8653 6.64165C25.8265 6.62772 25.791 6.60602 25.7611 6.57791C25.6724 6.50756 25.6144 6.40626 25.5989 6.29484C25.5834 6.18342 25.6116 6.07036 25.6778 5.97892L25.6334 5.94595L25.4001 6.28116C25.4736 6.41212 25.5761 6.52486 25.7 6.61088C25.7966 6.69157 25.9215 6.73109 26.0475 6.72079C26.1734 6.71049 26.2901 6.65121 26.3719 6.55593C26.694 6.1163 25.9777 5.78108 26.1942 5.49533Z" fill="#1D1D1B"/>
<path d="M20.8521 2.93447L21.0409 2.97843L20.7244 4.28633L20.5411 4.24237L20.53 4.29182L21.1298 4.42921L21.1409 4.37975L20.9521 4.33579L21.263 3.02789L21.4519 3.07185L21.463 3.02789L20.8632 2.88501L20.8521 2.93447Z" fill="#1D1D1B"/>
<path d="M17.2148 3.00604H17.2759C17.2759 2.8192 17.3647 2.60488 17.5757 2.61038H17.7701V3.94026H17.548V3.98972H18.231V3.95125H18.0033V2.62137H18.181C18.3865 2.62137 18.4642 2.83569 18.4698 3.02253H18.5309V2.56092L17.2148 2.54443V3.00604Z" fill="#1D1D1B"/>
<path d="M23.4843 4.18755H23.5398C23.6287 4.02269 23.7953 3.86333 23.9841 3.95675L24.1451 4.03368L23.5565 5.25365L23.351 5.15474V5.1987L23.9619 5.49545V5.45149L23.7619 5.35257L24.3506 4.15458L24.5061 4.23151C24.6949 4.31944 24.6727 4.54475 24.5949 4.7206H24.6505L24.8559 4.30295L23.6898 3.75342L23.4843 4.18755Z" fill="#1D1D1B"/>
<path d="M30.8867 11.2381V11.2931C31.0644 11.2271 31.2921 11.2161 31.3754 11.4085L31.442 11.5678L30.2314 12.0899L30.1426 11.8866H30.0981L30.3647 12.5075H30.4091L30.3203 12.3042L31.5586 11.7821L31.6253 11.9415C31.7086 12.1339 31.542 12.2877 31.3698 12.3702V12.4251L31.7974 12.2438L31.2921 11.0623L30.8867 11.2381Z" fill="#1D1D1B"/>
<path d="M19.636 2.67631L19.6304 2.72577L19.8359 2.74775L19.4638 3.30278L19.2139 2.67631L19.4249 2.70379L19.4305 2.65433L18.7863 2.57739L18.7808 2.62685L18.9474 2.64883L19.2472 3.35224L19.1695 4.02817L18.9807 4.00069L18.9696 4.05565L19.586 4.12159V4.07213L19.4027 4.05015L19.4805 3.37422L19.9025 2.75874L20.058 2.77523L20.0635 2.72577L19.636 2.67631Z" fill="#1D1D1B"/>
<path d="M27.6492 8.19367L28.6654 7.31441L28.5377 7.14406L28.5766 7.11108L28.9931 7.57819L28.9542 7.61116L28.8265 7.46828L27.8102 8.35304L27.938 8.49592L27.8935 8.53438L27.4771 8.06728L27.5159 8.02881L27.6492 8.19367ZM29.1374 7.76503L29.3929 8.05079L29.3485 8.08376L29.2541 7.97935H28.5821L28.3545 8.9905L28.4211 9.06744L28.3767 9.1059L28.0213 8.70474L28.0657 8.66627L28.149 8.75969L28.3545 7.9189H29.2096L29.0986 7.79251L29.1374 7.76503Z" fill="#1D1D1B"/>
<path d="M18.7475 30.9334L18.9363 30.9169L19.0751 32.2413L18.8863 32.2633L18.8919 32.3127L19.4972 32.2523L19.4916 32.2028L19.3028 32.2193L19.1695 30.8949L19.3583 30.8784L19.3528 30.8235L18.7419 30.8839L18.7475 30.9334Z" fill="#1D1D1B"/>
<path d="M27.8158 26.5096L27.938 26.3667L28.9597 27.2405L28.832 27.3834L28.8709 27.4108L29.2707 26.9547L29.2318 26.9218L29.1097 27.0646L28.0879 26.1964L28.2101 26.0535L28.1767 26.0205L27.7769 26.4821L27.8158 26.5096Z" fill="#1D1D1B"/>
<path d="M30.8033 21.1461L30.8533 20.9648L32.1583 21.2945L32.1083 21.4758L32.1583 21.4923L32.3082 20.9043L32.2583 20.8933L32.2138 21.0747L30.9088 20.745L30.9588 20.5581L30.9088 20.5471L30.7534 21.1351L30.8033 21.1461Z" fill="#1D1D1B"/>
<path d="M21.8406 30.3234L22.046 30.2575L22.3293 31.1917H22.3237L21.3408 30.4169L20.8965 30.5487L20.9132 30.5982L21.0909 30.5433L21.4741 31.8182L21.2964 31.8731L21.313 31.9226L21.7628 31.7852L21.7462 31.7412L21.5352 31.8017L21.1631 30.5707H21.1686L22.4792 31.5984L22.5125 31.5819L22.1071 30.241L22.2848 30.1915L22.2682 30.1421L21.8239 30.274L21.8406 30.3234Z" fill="#1D1D1B"/>
<path d="M9.10164 27.9658L9.24046 28.0812L8.84064 28.5648L8.35751 28.1636L8.75734 27.6855L8.89617 27.8009L8.92949 27.7625L8.46302 27.3833L8.43526 27.4218L8.57964 27.5427L7.7189 28.5703L7.57452 28.4494L7.5412 28.4879L8.00766 28.867L8.04098 28.8286L7.8966 28.7132L8.32419 28.2021L8.81287 28.5978L8.38528 29.1088L8.2409 28.9934L8.21313 29.0319L8.67404 29.4111L8.70736 29.3726L8.56298 29.2572L9.41816 28.2296L9.5681 28.3505L9.59587 28.312L9.13495 27.9273L9.10164 27.9658Z" fill="#1D1D1B"/>
<path d="M4.39809 20.5306L4.43696 20.7065L3.82611 20.8384L3.69283 20.2339L4.30368 20.0965L4.34255 20.2778L4.39253 20.2668L4.25926 19.6843L4.20928 19.6953L4.2537 19.8767L2.93761 20.1624L2.89873 19.9811L2.84875 19.9921L2.97648 20.5746L3.02646 20.5636L2.98758 20.3877L3.64286 20.2449L3.77613 20.8493L3.12641 20.9922L3.08754 20.8164L3.03756 20.8274L3.16528 21.4099L3.21526 21.3989L3.17639 21.2175L4.48694 20.9318L4.53136 21.1131L4.58134 21.1021L4.44806 20.5196L4.39809 20.5306Z" fill="#1D1D1B"/>
<path d="M16.5873 30.8674H16.5484L15.9542 32.2303H15.782V32.2797L16.2318 32.3182V32.2688H16.0208L16.2041 31.8291L16.5817 31.8621L16.6817 32.3237H16.4706V32.3732L17.1204 32.4281V32.3787H16.9315L16.5873 30.8674ZM16.2318 31.7357L16.4484 31.2411L16.565 31.7907L16.2318 31.7357Z" fill="#1D1D1B"/>
<path d="M10.2456 28.7188H10.2123L9.03501 29.6365L8.88507 29.5211V29.565L9.26269 29.8123V29.7684L9.09054 29.6749L9.4626 29.3782L9.77913 29.5815L9.64585 30.0321L9.46815 29.9167V29.9607L10.0235 30.3179L9.9957 30.2245L9.84021 30.1256L10.2456 28.7188ZM9.51813 29.3122L9.94572 28.9825L9.79579 29.4991L9.51813 29.3122Z" fill="#1D1D1B"/>
<path d="M24.4339 29.1255H24.4006L24.6893 30.5818L24.5394 30.6642V30.7082L24.9337 30.4883V30.4444L24.7504 30.5488L24.656 30.0872L24.9837 29.9058L25.328 30.2301L25.1447 30.3345V30.3784L25.7 30.0597V30.0157L25.539 30.1092L24.4339 29.1255ZM24.6338 30.0377L24.5283 29.4882L24.9226 29.8564L24.6338 30.0377Z" fill="#1D1D1B"/>
<path d="M6.20842 24.7566L6.32504 24.9434L5.49207 25.449H5.48651L5.99185 24.3059L5.74751 23.9158L5.70309 23.9432L5.80304 24.0971L4.65354 24.8005L4.55913 24.6412L4.51471 24.6686L4.75905 25.0643L4.80347 25.0368L4.68686 24.85L5.79194 24.1741L5.79749 24.1795L5.12556 25.6963L5.15888 25.7237L6.35836 24.9929L6.45831 25.1522L6.49719 25.1248L6.25285 24.7291L6.20842 24.7566Z" fill="#1D1D1B"/>
<path d="M30.6979 24.8115L30.5424 25.0752L29.9871 24.729L30.0426 24.6356C30.1592 24.4323 30.2259 24.4598 30.4424 24.5807L30.4702 24.5312L29.8705 24.1795L29.8371 24.229C30.026 24.3389 30.0926 24.3938 29.976 24.5972L29.9204 24.6906L29.3651 24.3773L29.4151 24.2949C29.6483 23.8992 29.715 23.8553 30.0593 23.9762V23.9322L29.6705 23.7234L29.1152 24.7181H29.1597L29.2541 24.5532L30.4313 25.2786L30.3369 25.4434H30.3814L30.9922 24.3993L30.5702 24.1795H30.5424C30.7701 24.3828 30.8534 24.5477 30.6979 24.8115Z" fill="#1D1D1B"/>
<path d="M7.64667 26.9274C7.67183 26.905 7.70132 26.8878 7.73337 26.877C7.76542 26.8662 7.79935 26.862 7.8331 26.8646C7.86686 26.8671 7.89973 26.8765 7.92974 26.892C7.95974 26.9075 7.98624 26.9289 8.00763 26.9549C8.07175 27.0205 8.1076 27.1082 8.1076 27.1994C8.1076 27.2907 8.07175 27.3784 8.00763 27.444L8.0465 27.4824L8.26307 27.2516C8.21861 27.1316 8.15068 27.0214 8.06316 26.9274C8.02431 26.8875 7.97773 26.8558 7.92621 26.8341C7.87468 26.8124 7.81927 26.8013 7.76329 26.8013C7.70731 26.8013 7.6519 26.8124 7.60037 26.8341C7.54885 26.8558 7.50227 26.8875 7.46342 26.9274C7.10802 27.2791 7.76329 27.7297 7.46342 28.0265C7.43325 28.0538 7.39764 28.0747 7.35887 28.0876C7.32011 28.1006 7.27903 28.1055 7.23827 28.1018C7.19751 28.0982 7.15796 28.0862 7.12214 28.0666C7.08633 28.047 7.05504 28.0202 7.03027 27.988C6.95377 27.9067 6.91124 27.7996 6.91124 27.6885C6.91124 27.5774 6.95377 27.4704 7.03027 27.389L6.9914 27.3505L6.70819 27.6473C6.76064 27.7866 6.84415 27.9125 6.95253 28.0155C6.99296 28.0621 7.04229 28.1003 7.09769 28.1281C7.15308 28.1558 7.21345 28.1724 7.27535 28.177C7.33725 28.1816 7.39945 28.1741 7.45841 28.1548C7.51736 28.1356 7.5719 28.1051 7.61891 28.0649C8.04095 27.6418 7.39123 27.2022 7.64667 26.9274Z" fill="#1D1D1B"/>
<path d="M11.6394 29.5761L11.806 29.6585L11.5228 30.2136L10.9564 29.9333L11.2452 29.3783L11.4062 29.4607L11.4284 29.4167L10.8898 29.1475L10.8676 29.1914L11.0397 29.2739L10.4289 30.4664L10.2623 30.3784L10.2345 30.4224L10.7732 30.6917L10.7954 30.6477L10.6343 30.5708L10.9397 29.9773L11.5006 30.2575L11.1952 30.851L11.0342 30.7686L11.0119 30.8126L11.5506 31.0818L11.5728 31.0379L11.4007 30.9499L12.0115 29.7629L12.1781 29.8454L12.2003 29.8014L11.6617 29.5321L11.6394 29.5761Z" fill="#1D1D1B"/>
<path d="M23.1789 29.8288L23.3455 29.7574L23.5953 30.3289L23.0178 30.5707L22.7679 30.0047L22.9345 29.9333L22.9179 29.8838L22.3625 30.1201L22.3792 30.1641L22.5569 30.0926L23.09 31.3181L22.9123 31.3895L22.9345 31.439L23.4898 31.2027L23.4676 31.1587L23.301 31.2302L23.0345 30.6202L23.612 30.3729L23.8786 30.9829L23.712 31.0543L23.7286 31.0983L24.2839 30.862L24.2673 30.818L24.0896 30.895L23.5565 29.6695L23.7342 29.5925L23.712 29.5486L23.1566 29.7849L23.1789 29.8288Z" fill="#1D1D1B"/>
<path d="M30.6979 22.1298C30.6662 22.1173 30.6374 22.0985 30.6134 22.0746C30.5893 22.0506 30.5705 22.0221 30.558 21.9907C30.5455 21.9593 30.5397 21.9257 30.5408 21.892C30.5419 21.8582 30.55 21.8251 30.5646 21.7946C30.6257 21.6187 30.77 21.5418 31.0033 21.5693V21.5198L30.7145 21.4319C30.6248 21.5252 30.5549 21.6355 30.509 21.7561C30.4866 21.8072 30.4748 21.8622 30.4744 21.918C30.4741 21.9737 30.4851 22.0289 30.5069 22.0802C30.5287 22.1316 30.5608 22.1781 30.6013 22.2168C30.6417 22.2555 30.6897 22.2858 30.7423 22.3056C31.2143 22.465 31.3365 21.6847 31.703 21.8056C31.7415 21.8198 31.7765 21.8419 31.8058 21.8703C31.8352 21.8988 31.8582 21.933 31.8734 21.9708C31.8885 22.0086 31.8955 22.0491 31.8939 22.0898C31.8923 22.1304 31.8821 22.1702 31.864 22.2067C31.8217 22.3112 31.7406 22.3956 31.6373 22.4427C31.534 22.4897 31.4164 22.4957 31.3087 22.4595V22.509L31.703 22.6244C31.8069 22.5167 31.8847 22.387 31.9307 22.2452C31.9738 22.1293 31.9688 22.0012 31.9168 21.889C31.8647 21.7767 31.7699 21.6894 31.653 21.6462C31.1477 21.4758 31.0422 22.2452 30.6979 22.1298Z" fill="#1D1D1B"/>
<path d="M31.4031 20.5088V20.4484C31.2199 20.4099 31.02 20.2945 31.0588 20.0912L31.0866 19.9208L32.3971 20.1516L32.3583 20.366H32.4082L32.5249 19.7065H32.4749L32.436 19.9263L31.1255 19.6955L31.1532 19.5252C31.1865 19.3218 31.4087 19.2834 31.5975 19.3054L31.653 19.2339L31.1977 19.157L30.9755 20.4099L31.4031 20.5088Z" fill="#1D1D1B"/>
<path d="M31.7363 17.8214V17.761C31.5475 17.761 31.3365 17.6841 31.3309 17.4807V17.3104L32.6637 17.2829V17.5027H32.7137V16.8323H32.6637V17.0356L31.3309 17.0631V16.8927C31.3309 16.6894 31.5364 16.607 31.7252 16.5905V16.53H31.2643V17.805L31.7363 17.8214Z" fill="#1D1D1B"/>
<path d="M26.3053 27.922L26.4775 27.7901L27.0606 28.5265C27.2105 28.7133 27.2771 28.8617 26.9773 29.076C26.6774 29.2903 26.5996 29.2134 26.4219 29.0101L25.8278 28.2627L25.9832 28.1418L25.9499 28.1033L25.4668 28.4825L25.5001 28.521L25.6445 28.4056L26.2553 29.1749C26.4219 29.3838 26.5663 29.4607 26.9495 29.1749C27.3327 28.8892 27.2771 28.7133 27.105 28.499L26.5108 27.7461L26.6441 27.6417L26.6552 27.6143L26.2998 27.889L26.3053 27.922Z" fill="#1D1D1B"/>
<path d="M27.3826 26.9492L27.5381 26.7954L28.2211 27.4878V27.4933L26.9883 27.2625L26.6552 27.5812L26.6885 27.6197L26.8217 27.4878L27.7658 28.444L27.6325 28.5704L27.6658 28.6033L27.999 28.2791L27.9657 28.2461L27.8102 28.4L26.8995 27.4823V27.4768L28.5488 27.7845L28.5654 27.7516L27.5825 26.7569L27.7158 26.625L27.6769 26.592L27.3437 26.9163L27.3826 26.9492Z" fill="#1D1D1B"/>
<path d="M31.2754 16.4257L31.2532 16.2334L32.597 16.1015L32.6137 16.2883L32.6637 16.2828L32.6026 15.6838L32.5526 15.6893L32.5693 15.8762L31.2309 16.0081L31.2143 15.8212L31.1643 15.8267L31.2254 16.4257H31.2754Z" fill="#1D1D1B"/>
<path d="M28.8542 25.1907L28.9764 25.0258L29.6316 25.9326H29.6261L28.5654 25.5864L28.6876 25.4215L28.6487 25.394L28.2878 25.8831L28.3322 25.9161L28.4266 25.7787L29.8538 26.2238L29.8815 26.1909L29.0208 24.9709L29.1041 24.85L29.0652 24.8225L28.8153 25.1632L28.8542 25.1907Z" fill="#1D1D1B"/>
<path d="M32.6248 18.4646V18.7668L31.9695 18.7173V18.6074C31.9695 18.3766 32.0528 18.3656 32.3083 18.3821V18.3217L31.6197 18.2722V18.3327C31.8362 18.3327 31.9251 18.3711 31.9084 18.6019V18.7118L31.2643 18.6844V18.5909C31.2976 18.1348 31.3365 18.0414 31.703 18.0414V17.9865H31.2587L31.1754 19.1295H31.2254V18.9427L32.5693 19.0416V19.2284H32.6192L32.7081 18.0249L32.2139 17.97V18.0249C32.5026 18.0469 32.6526 18.1348 32.6248 18.4646Z" fill="#1D1D1B"/>
<path d="M4.22594 23.9544L4.09267 23.6796L4.68685 23.3993L4.73128 23.4982C4.83124 23.7071 4.7757 23.751 4.54802 23.8609V23.9159L5.19774 23.6301V23.5752C4.99783 23.6686 4.91453 23.6906 4.81458 23.4818L4.7646 23.3828L5.31991 23.1136L5.36434 23.2015C5.56425 23.6136 5.56425 23.6961 5.26993 23.9049V23.9544L5.66421 23.7565L5.16442 22.7234H5.12L5.2033 22.8937L3.98716 23.4433L3.8872 23.3059H3.84277L4.37032 24.405L4.82568 24.2126V24.1632C4.54247 24.2566 4.35922 24.2291 4.22594 23.9544Z" fill="#1D1D1B"/>
<path d="M31.2754 22.9266C30.9755 22.8167 30.9033 22.8826 30.72 23.1409C30.7756 22.9541 30.7756 22.7892 30.559 22.7013C30.3424 22.6133 30.1647 22.7013 30.0648 22.9596L29.826 23.5091H29.8704L29.9482 23.3387L31.181 23.8883L31.1032 24.0586H31.1476L31.392 23.5091H31.3476L31.2754 23.674L30.6534 23.4047L30.7034 23.2893C30.8089 23.053 30.9033 23.0475 31.1532 23.1409C31.4031 23.2343 31.5142 23.2618 31.6141 23.0365L31.6752 22.9046H31.6308V22.9486C31.5808 23.031 31.4753 23.0035 31.2754 22.9266ZM30.6145 23.3717L30.0592 23.1299L30.1036 23.0365C30.1869 22.8496 30.3147 22.8332 30.4868 22.9046C30.659 22.976 30.7423 23.0805 30.6701 23.2398L30.6145 23.3717Z" fill="#1D1D1B"/>
<path d="M13.0666 31.2578C13.161 30.9555 13.0666 30.8896 12.8167 30.7522C13.0055 30.7961 13.1721 30.7797 13.2498 30.5653C13.3276 30.351 13.1998 30.1807 12.9555 30.0927L12.4002 29.8894V29.9334L12.5779 29.9993L12.117 31.2523L11.9393 31.1863V31.2358L12.4946 31.4391V31.3951L12.3224 31.3237L12.5557 30.6917L12.6778 30.7357C12.9222 30.8236 12.9333 30.9225 12.8555 31.1698C12.7778 31.4171 12.7611 31.538 12.9944 31.6205L13.1332 31.6699V31.6205H13.0832C12.9833 31.5655 13.0055 31.4611 13.0666 31.2578ZM12.5779 30.6313L12.7834 30.0817L12.8833 30.1202C13.0777 30.1917 13.1054 30.318 13.0388 30.4939C12.9722 30.6697 12.8778 30.7577 12.7112 30.6972L12.5779 30.6313Z" fill="#1D1D1B"/>
<path d="M3.88723 18.86C3.92114 18.857 3.95532 18.8609 3.98757 18.8717C4.01983 18.8825 4.04946 18.8998 4.07456 18.9226C4.09965 18.9453 4.11966 18.973 4.13331 19.0039C4.14695 19.0348 4.15393 19.0681 4.15379 19.1018C4.15379 19.2887 4.08159 19.4151 3.85947 19.492V19.5469L4.17045 19.4975C4.20898 19.375 4.2222 19.246 4.20932 19.1183C4.20804 19.0617 4.195 19.006 4.17101 18.9546C4.14702 18.9032 4.11259 18.8573 4.06987 18.8196C4.02715 18.782 3.97705 18.7535 3.9227 18.7358C3.86835 18.7182 3.81091 18.7118 3.75396 18.7171C3.25973 18.7776 3.49296 19.5305 3.10424 19.5799C2.90988 19.5799 2.80437 19.448 2.78771 19.2832C2.77824 19.1714 2.81284 19.0604 2.88427 18.9733C2.9557 18.8862 3.05841 18.8299 3.17088 18.8161V18.7611L2.7766 18.827C2.73036 18.9688 2.71707 19.1191 2.73773 19.2667C2.74056 19.3285 2.75579 19.3892 2.78254 19.4452C2.80928 19.5012 2.847 19.5513 2.8935 19.5927C2.94001 19.6341 2.99437 19.666 3.05343 19.6864C3.11249 19.7069 3.17506 19.7155 3.23752 19.7118C3.77062 19.6459 3.53183 18.904 3.88723 18.86Z" fill="#1D1D1B"/>
<path d="M20.1635 30.7521L20.3523 30.7137L20.6244 32.0161L20.4412 32.0545L20.4523 32.104L21.0465 31.9831L21.0354 31.9337L20.8521 31.9721L20.5744 30.6642L20.7633 30.6257L20.7521 30.5818L20.1524 30.7027L20.1635 30.7521Z" fill="#1D1D1B"/>
<path d="M13.7885 30.4223L13.9718 30.4717L13.6164 31.7576L13.4275 31.7082L13.4164 31.7521L14.0051 31.9115L14.0217 31.8675L13.8329 31.8126L14.1883 30.5322L14.3771 30.5816L14.3882 30.5322L13.7996 30.3728L13.7885 30.4223Z" fill="#1D1D1B"/>
<path d="M6.1418 25.4326L6.18067 25.4821C6.33616 25.3721 6.55273 25.3062 6.68045 25.4821L6.78596 25.6194L5.71976 26.4053L5.58648 26.2294L5.54761 26.2624L5.95854 26.8119L5.99741 26.7845L5.86414 26.6086L6.92479 25.8063L7.0303 25.9437C7.15802 26.1085 7.0303 26.2954 6.89147 26.4163L6.93034 26.4657L7.29685 26.1855L6.51386 25.1743L6.1418 25.4326Z" fill="#1D1D1B"/>
<path d="M3.70396 15.7773V15.8378C3.89277 15.8378 4.09824 15.9532 4.08158 16.1565V16.3269L2.75437 16.2225V16.0027H2.7044L2.64886 16.6676H2.69884V16.4478L4.02605 16.5522V16.7225C4.02605 16.9259 3.79281 16.9863 3.60401 16.9808V17.0358L4.06492 17.0688L4.16488 15.7993L3.70396 15.7773Z" fill="#1D1D1B"/>
<path d="M3.39854 21.9814L4.6591 21.5418L4.59802 21.366H4.648L4.85346 21.9485H4.80349L4.7424 21.7726L3.47628 22.2123L3.53737 22.3881H3.48739L3.28192 21.8056H3.3319L3.39854 21.9814ZM4.93121 22.1298L5.05893 22.487H5.00895L4.96453 22.3606L4.34257 22.1133L3.75394 22.9596L3.78726 23.0585H3.73728L3.55958 22.5585H3.60956L3.65398 22.6794L4.15377 21.9814L4.93676 22.3002L4.88123 22.1463L4.93121 22.1298Z" fill="#1D1D1B"/>
<path d="M4.10934 17.8654C4.10556 17.7752 4.08274 17.6867 4.04236 17.6056C4.00198 17.5246 3.94493 17.4528 3.87487 17.3948C3.80481 17.3369 3.72328 17.294 3.63551 17.2691C3.54775 17.2441 3.45568 17.2376 3.36522 17.25C3.27597 17.2444 3.18652 17.2572 3.10257 17.2877C3.01861 17.3182 2.942 17.3657 2.87759 17.4271C2.81319 17.4885 2.76241 17.5625 2.72849 17.6444C2.69457 17.7263 2.67825 17.8142 2.68058 17.9027C2.6829 17.9912 2.70381 18.0782 2.74198 18.1582C2.78015 18.2383 2.83474 18.3095 2.90228 18.3676C2.96982 18.4256 3.04882 18.469 3.13426 18.4952C3.2197 18.5213 3.3097 18.5296 3.39854 18.5194C3.48961 18.5271 3.5813 18.5158 3.66771 18.4863C3.75412 18.4568 3.83335 18.4098 3.90029 18.3482C3.96723 18.2866 4.02041 18.2118 4.05642 18.1287C4.09242 18.0456 4.11045 17.9559 4.10934 17.8654ZM2.99871 18.2336C2.95364 18.2312 2.90986 18.2179 2.87116 18.1949C2.83245 18.1719 2.79999 18.1399 2.77659 18.1017C2.74074 18.0395 2.71984 17.9699 2.7155 17.8984C2.70751 17.8544 2.70882 17.8092 2.71933 17.7657C2.72984 17.7222 2.74934 17.6813 2.77659 17.6456C2.83621 17.5896 2.91184 17.5532 2.99316 17.5412C3.10531 17.5245 3.21849 17.5153 3.3319 17.5137C3.48132 17.4963 3.63229 17.4963 3.78171 17.5137C3.81919 17.5198 3.85494 17.5337 3.88654 17.5546C3.91815 17.5754 3.94489 17.6027 3.96496 17.6346C4.00118 17.6984 4.02029 17.7703 4.02049 17.8435C4.02455 17.914 4.0092 17.9842 3.97607 18.0468C3.94311 18.1088 3.8875 18.1559 3.82058 18.1787C3.69044 18.2143 3.55575 18.231 3.42075 18.2281C3.27496 18.2426 3.12817 18.2444 2.98205 18.2336H2.99871Z" fill="#1D1D1B"/>
<path d="M14.5437 31.9775L14.7825 30.6861L14.5993 30.6531V30.5981L15.2101 30.7081C15.3341 30.7266 15.453 30.7696 15.56 30.8344C15.6591 30.9063 15.7314 31.0088 15.7654 31.1257C15.8106 31.2584 15.8202 31.4004 15.7932 31.5379C15.7694 31.6788 15.7059 31.8103 15.6099 31.917C15.5316 32.0093 15.4272 32.0763 15.3101 32.1094C15.1909 32.1331 15.0682 32.1331 14.9491 32.1094L14.3438 31.9995V31.9445L14.5437 31.9775ZM15.0213 30.7245L14.7881 32.0214L14.9658 32.0544C15.0414 32.0639 15.1179 32.0639 15.1934 32.0544C15.2578 32.0457 15.3169 32.0145 15.36 31.9665C15.4139 31.9062 15.4537 31.8349 15.4767 31.7577C15.5128 31.6444 15.5407 31.5287 15.56 31.4115C15.5886 31.2792 15.5886 31.1425 15.56 31.0103C15.5439 30.9338 15.498 30.8667 15.4322 30.8235C15.3569 30.7875 15.2763 30.7634 15.1934 30.752L15.0213 30.7245Z" fill="#1D1D1B"/>
<path d="M18.3976 31.3237H18.3254C18.3138 31.2709 18.297 31.2194 18.2754 31.1698C18.2503 31.0955 18.2016 31.0313 18.1365 30.9867C18.0715 30.9422 17.9936 30.9196 17.9145 30.9225C17.8711 30.9196 17.8276 30.9254 17.7866 30.9396C17.7455 30.9537 17.7078 30.976 17.6757 31.0049C17.6248 31.0593 17.5936 31.1289 17.5869 31.2028C17.5793 31.3144 17.5793 31.4264 17.5869 31.538C17.5843 31.7108 17.5954 31.8835 17.6202 32.0545C17.6321 32.1272 17.6694 32.1933 17.7257 32.2414C17.7809 32.2842 17.85 32.3057 17.92 32.3018C17.9748 32.3008 18.0284 32.2856 18.0755 32.2579C18.097 32.2457 18.1155 32.2291 18.1299 32.2092C18.1443 32.1892 18.1541 32.1665 18.1588 32.1425C18.1669 32.0676 18.1669 31.9921 18.1588 31.9172V31.8732H17.9589V31.8182H18.6031V31.8732H18.4365C18.4453 31.9472 18.4351 32.0222 18.407 32.0914C18.3788 32.1605 18.3336 32.2215 18.2754 32.2689C18.1752 32.3463 18.0527 32.3906 17.9256 32.3953C17.8389 32.3968 17.7531 32.3782 17.675 32.3409C17.5969 32.3037 17.5287 32.2489 17.4758 32.1809C17.3542 32.0356 17.2875 31.853 17.287 31.6644C17.2737 31.4664 17.3351 31.2707 17.4591 31.1148C17.5102 31.0438 17.5777 30.9858 17.6559 30.9457C17.7341 30.9056 17.8208 30.8844 17.9089 30.884C18.0349 30.8863 18.1563 30.9309 18.2532 31.0104C18.2866 31.0104 18.3088 30.972 18.3088 30.972H18.3643L18.3976 31.3237Z" fill="#1D1D1B"/>
</svg>
